<mxfile host="app.diagrams.net" modified="2023-03-24T05:45:49.252Z" agent="5.0 (Windows NT 10.0; Win64; x64) AppleWebKit/537.36 (KHTML, like Gecko) Chrome/111.0.0.0 Safari/537.36" etag="QQZ5imiza8gCzto8VwZK" version="21.0.10" type="github">
  <diagram name="페이지-1" id="lzwnEvJdzLG3fcHL6hEd">
    <mxGraphModel dx="508" dy="577" grid="1" gridSize="10" guides="1" tooltips="1" connect="1" arrows="1" fold="1" page="1" pageScale="1" pageWidth="827" pageHeight="1169" math="0" shadow="0">
      <root>
        <mxCell id="0" />
        <mxCell id="1" parent="0" />
        <mxCell id="eGoWa1pfNh_3Zk2s7A7b-1" value="manufacturing&lt;br&gt;plant" style="shape=umlActor;verticalLabelPosition=bottom;verticalAlign=top;html=1;outlineConnect=0;" vertex="1" parent="1">
          <mxGeometry x="80" y="100" width="30" height="60" as="geometry" />
        </mxCell>
        <mxCell id="eGoWa1pfNh_3Zk2s7A7b-4" value="plant&lt;br&gt;manager" style="shape=umlActor;verticalLabelPosition=bottom;verticalAlign=top;html=1;outlineConnect=0;" vertex="1" parent="1">
          <mxGeometry x="80" y="210" width="30" height="60" as="geometry" />
        </mxCell>
      </root>
    </mxGraphModel>
  </diagram>
</mxfile>
